<?xml version="1.0" encoding="UTF-8" standalone="no"?>
<!DOCTYPE svg PUBLIC "-//W3C//DTD SVG 1.1//EN" "http://www.w3.org/Graphics/SVG/1.1/DTD/svg11.dtd">
<svg width="100%" height="100%" viewBox="0 0 566 283" version="1.1" xmlns="http://www.w3.org/2000/svg" xmlns:xlink="http://www.w3.org/1999/xlink" xml:space="preserve" xmlns:serif="http://www.serif.com/" style="fill-rule:evenodd;clip-rule:evenodd;stroke-linejoin:round;stroke-miterlimit:2;">
    <g transform="matrix(0.328285,0,0,0.328285,-345.622,-566.72)">
        <g transform="matrix(3.04613,0,0,3.04613,1052.81,1726.3)">
            <path d="M297.009,210.121C297.009,210.334 296.758,210.441 296.255,210.441L295.364,210.441C294.862,210.441 294.611,210.334 294.611,210.121C294.611,209.87 294.428,209.676 294.062,209.54C293.697,209.405 293.286,209.337 292.829,209.337C292.441,209.337 292.069,209.403 291.715,209.533C291.361,209.664 291.184,209.874 291.184,210.165C291.184,210.3 291.219,210.448 291.287,210.608C291.356,210.767 291.481,210.915 291.664,211.051L296.769,215.436C297.203,215.804 297.512,216.133 297.694,216.423C297.877,216.714 297.968,217.014 297.968,217.324C297.968,217.73 297.831,218.091 297.557,218.405C297.283,218.72 296.912,218.984 296.444,219.197C295.975,219.41 295.416,219.569 294.765,219.676C294.114,219.782 293.411,219.836 292.658,219.836C291.881,219.836 291.156,219.782 290.482,219.676C289.808,219.569 289.22,219.414 288.717,219.211C288.215,219.008 287.821,218.759 287.535,218.463C287.25,218.168 287.107,217.837 287.107,217.469C287.107,217.227 287.358,217.106 287.861,217.106L288.717,217.106C289.22,217.106 289.471,217.227 289.471,217.469C289.471,217.875 289.78,218.192 290.396,218.42C291.013,218.647 291.755,218.761 292.623,218.761C292.943,218.761 293.269,218.739 293.6,218.696C293.931,218.652 294.234,218.577 294.508,218.471C294.782,218.364 295.005,218.217 295.176,218.028C295.347,217.839 295.433,217.599 295.433,217.309C295.433,217.115 295.376,216.919 295.262,216.721C295.147,216.522 294.93,216.283 294.611,216.002L289.403,211.515C289.106,211.264 288.912,211.031 288.82,210.818C288.729,210.605 288.683,210.417 288.683,210.252C288.683,209.904 288.803,209.606 289.043,209.359C289.283,209.112 289.603,208.906 290.002,208.742C290.402,208.577 290.847,208.456 291.339,208.379C291.83,208.301 292.326,208.263 292.829,208.263C293.423,208.263 293.971,208.311 294.474,208.408C294.976,208.505 295.416,208.635 295.793,208.8C296.17,208.965 296.467,209.161 296.684,209.388C296.901,209.616 297.009,209.86 297.009,210.121ZM352.831,210.702C352.831,210.305 352.98,209.954 353.277,209.649C353.574,209.344 353.962,209.09 354.442,208.887C354.921,208.684 355.464,208.529 356.069,208.422C356.674,208.316 357.285,208.263 357.902,208.263C358.542,208.263 359.164,208.316 359.769,208.422C360.375,208.529 360.917,208.684 361.397,208.887C361.877,209.09 362.259,209.344 362.545,209.649C362.83,209.954 362.973,210.305 362.973,210.702L362.973,217.396C362.973,217.803 362.83,218.158 362.545,218.463C362.259,218.768 361.877,219.022 361.397,219.226C360.917,219.429 360.375,219.581 359.769,219.683C359.164,219.785 358.542,219.836 357.902,219.836C357.285,219.836 356.674,219.785 356.069,219.683C355.464,219.581 354.921,219.429 354.442,219.226C353.962,219.022 353.574,218.768 353.277,218.463C352.98,218.158 352.831,217.803 352.831,217.396L352.831,210.702ZM312.231,208.364C312.733,208.364 312.985,208.471 312.985,208.684L312.985,209.119C312.985,209.332 312.733,209.439 312.231,209.439L309.592,209.439C309.09,209.439 308.839,209.545 308.839,209.758L308.839,219.414C308.839,219.627 308.587,219.734 308.085,219.734L307.023,219.734C306.52,219.734 306.269,219.627 306.269,219.414L306.269,209.758C306.269,209.545 306.018,209.439 305.515,209.439L303.014,209.439C302.511,209.439 302.26,209.332 302.26,209.119L302.26,208.684C302.26,208.471 302.511,208.364 303.014,208.364L312.231,208.364ZM380.659,218.659C381.162,218.659 381.413,218.766 381.413,218.979L381.413,219.414C381.413,219.627 381.162,219.734 380.659,219.734L371.442,219.734C370.94,219.734 370.689,219.627 370.689,219.414L370.689,218.979C370.689,218.766 370.94,218.659 371.442,218.659L374.115,218.659C374.618,218.659 374.869,218.553 374.869,218.34L374.869,210.615C374.869,210.402 374.618,210.296 374.115,210.296L373.224,210.296C372.539,210.296 372.196,210.218 372.196,210.063C372.196,209.957 372.402,209.792 372.813,209.57L374.526,208.684C374.8,208.548 375.029,208.461 375.211,208.422C375.394,208.384 375.645,208.364 375.965,208.364L376.65,208.364C377.153,208.364 377.404,208.471 377.404,208.684L377.404,218.34C377.404,218.553 377.656,218.659 378.158,218.659L380.659,218.659ZM337.269,218.5C337.269,218.606 337.395,218.659 337.646,218.659L344.396,218.659C344.899,218.659 345.15,218.766 345.15,218.979L345.15,219.414C345.15,219.627 344.899,219.734 344.396,219.734L335.453,219.734C334.951,219.734 334.7,219.627 334.7,219.414L334.7,218.471C334.7,218.142 334.808,217.776 335.025,217.374C335.242,216.973 335.59,216.588 336.07,216.22L341.415,212.096C341.735,211.844 341.998,211.585 342.203,211.319C342.409,211.053 342.512,210.799 342.512,210.557C342.512,210.189 342.272,209.894 341.792,209.671C341.312,209.449 340.707,209.337 339.976,209.337C339.496,209.337 339.091,209.381 338.76,209.468C338.428,209.555 338.16,209.661 337.955,209.787C337.726,209.913 337.475,209.976 337.201,209.976C337.064,209.976 336.927,209.962 336.79,209.933L335.967,209.744C335.716,209.686 335.59,209.599 335.59,209.482C335.59,209.444 335.625,209.395 335.693,209.337C336.081,209.047 336.635,208.795 337.355,208.582C338.074,208.369 338.948,208.263 339.976,208.263C340.73,208.263 341.415,208.326 342.032,208.451C342.649,208.577 343.18,208.749 343.625,208.967C344.071,209.185 344.419,209.434 344.67,209.715C344.921,209.995 345.047,210.296 345.047,210.615C345.047,210.867 344.944,211.164 344.739,211.508C344.533,211.852 344.145,212.241 343.574,212.677L338.229,216.757C337.84,217.048 337.583,217.328 337.458,217.599C337.332,217.87 337.269,218.171 337.269,218.5ZM389.848,209.439C389.346,209.439 389.094,209.332 389.094,209.119L389.094,208.684C389.094,208.471 389.346,208.364 389.848,208.364L398.791,208.364C399.293,208.364 399.545,208.471 399.545,208.684L399.545,209.439C399.545,209.623 399.51,209.77 399.442,209.882C399.373,209.993 399.248,210.146 399.065,210.339C398.585,210.852 398.117,211.377 397.66,211.915C397.203,212.452 396.775,213.021 396.375,213.621C395.976,214.221 395.622,214.857 395.313,215.53C395.005,216.203 394.759,216.931 394.577,217.716C394.44,218.258 394.337,218.829 394.268,219.429C394.223,219.632 393.971,219.734 393.514,219.734L392.452,219.734C391.95,219.734 391.698,219.623 391.698,219.4C391.698,219.361 391.71,219.269 391.733,219.124C391.756,218.979 391.784,218.817 391.818,218.638C391.853,218.459 391.887,218.275 391.921,218.086C391.955,217.897 391.995,217.73 392.041,217.585C392.247,216.83 392.504,216.128 392.812,215.479C393.12,214.831 393.457,214.221 393.823,213.65C394.188,213.079 394.582,212.546 395.005,212.053C395.427,211.559 395.844,211.089 396.255,210.644C396.507,210.392 396.712,210.187 396.872,210.027C397.032,209.867 397.112,209.729 397.112,209.613C397.112,209.497 396.975,209.439 396.701,209.439L389.848,209.439ZM277.061,213.461C277.564,213.461 277.815,213.568 277.815,213.78L277.815,214.216C277.815,214.429 277.564,214.536 277.061,214.536L272.642,214.536C272.139,214.536 271.888,214.642 271.888,214.855L271.888,218.34C271.888,218.553 272.139,218.659 272.642,218.659L279.014,218.659C279.517,218.659 279.768,218.766 279.768,218.979L279.768,219.414C279.768,219.627 279.517,219.734 279.014,219.734L270.072,219.734C269.569,219.734 269.318,219.627 269.318,219.414L269.318,208.684C269.318,208.471 269.569,208.364 270.072,208.364L279.014,208.364C279.517,208.364 279.768,208.471 279.768,208.684L279.768,209.119C279.768,209.332 279.517,209.439 279.014,209.439L272.642,209.439C272.139,209.439 271.888,209.545 271.888,209.758L271.888,213.142C271.888,213.355 272.139,213.461 272.642,213.461L277.061,213.461ZM314.643,219.414C314.643,219.627 314.391,219.734 313.889,219.734L312.827,219.734C312.324,219.734 312.073,219.627 312.073,219.414L312.073,218.819C312.073,218.606 312.324,218.5 312.827,218.5L313.889,218.5C314.391,218.5 314.643,218.606 314.643,218.819L314.643,219.414ZM355.401,217.498C355.401,217.914 355.641,218.229 356.12,218.442C356.6,218.655 357.194,218.761 357.902,218.761C358.61,218.761 359.21,218.655 359.701,218.442C360.192,218.229 360.438,217.914 360.438,217.498L360.438,210.615C360.438,210.189 360.192,209.87 359.701,209.657C359.21,209.444 358.61,209.337 357.902,209.337C357.194,209.337 356.6,209.444 356.12,209.657C355.641,209.87 355.401,210.189 355.401,210.615L355.401,217.498ZM418.437,214.536C417.934,214.536 417.683,214.429 417.683,214.216L417.683,213.78C417.683,213.568 417.934,213.461 418.437,213.461L422.788,213.461C423.291,213.461 423.542,213.568 423.542,213.78L423.542,214.216C423.542,214.429 423.291,214.536 422.788,214.536L418.437,214.536ZM245.766,214.536C245.264,214.536 245.013,214.429 245.013,214.216L245.013,213.78C245.013,213.568 245.264,213.461 245.766,213.461L250.118,213.461C250.62,213.461 250.872,213.568 250.872,213.78L250.872,214.216C250.872,214.429 250.62,214.536 250.118,214.536L245.766,214.536ZM503.371,180.425C503.371,180.638 503.12,180.745 502.617,180.745L501.727,180.745C501.224,180.745 500.973,180.638 500.973,180.425C500.973,180.174 500.79,179.98 500.425,179.845C500.059,179.709 499.648,179.641 499.191,179.641C498.803,179.641 498.432,179.707 498.078,179.837C497.724,179.968 497.547,180.179 497.547,180.469C497.547,180.605 497.581,180.752 497.649,180.912C497.718,181.072 497.843,181.219 498.026,181.355L503.131,185.74C503.565,186.108 503.874,186.437 504.057,186.727C504.239,187.018 504.331,187.318 504.331,187.628C504.331,188.034 504.194,188.395 503.919,188.709C503.645,189.024 503.274,189.288 502.806,189.501C502.338,189.714 501.778,189.873 501.127,189.98C500.476,190.086 499.774,190.14 499.02,190.14C498.243,190.14 497.518,190.086 496.844,189.98C496.17,189.873 495.582,189.719 495.08,189.515C494.577,189.312 494.183,189.063 493.898,188.768C493.612,188.472 493.469,188.141 493.469,187.773C493.469,187.531 493.72,187.41 494.223,187.41L495.08,187.41C495.582,187.41 495.833,187.531 495.833,187.773C495.833,188.179 496.142,188.496 496.758,188.724C497.375,188.951 498.118,189.065 498.986,189.065C499.305,189.065 499.631,189.043 499.962,189C500.293,188.956 500.596,188.881 500.87,188.775C501.144,188.668 501.367,188.521 501.538,188.332C501.71,188.143 501.795,187.904 501.795,187.613C501.795,187.42 501.738,187.223 501.624,187.025C501.51,186.827 501.293,186.587 500.973,186.306L495.765,181.819C495.468,181.568 495.274,181.335 495.182,181.122C495.091,180.909 495.045,180.721 495.045,180.556C495.045,180.208 495.165,179.91 495.405,179.663C495.645,179.416 495.965,179.211 496.364,179.046C496.764,178.881 497.21,178.76 497.701,178.683C498.192,178.606 498.689,178.567 499.191,178.567C499.785,178.567 500.333,178.615 500.836,178.712C501.338,178.809 501.778,178.94 502.155,179.104C502.532,179.269 502.829,179.465 503.046,179.692C503.263,179.92 503.371,180.164 503.371,180.425ZM337.276,180.425C337.276,180.638 337.025,180.745 336.523,180.745L335.632,180.745C335.129,180.745 334.878,180.638 334.878,180.425C334.878,180.174 334.695,179.98 334.33,179.845C333.964,179.709 333.553,179.641 333.096,179.641C332.708,179.641 332.337,179.707 331.983,179.837C331.629,179.968 331.452,180.179 331.452,180.469C331.452,180.605 331.486,180.752 331.554,180.912C331.623,181.072 331.749,181.219 331.931,181.355L337.036,185.74C337.47,186.108 337.779,186.437 337.962,186.727C338.144,187.018 338.236,187.318 338.236,187.628C338.236,188.034 338.099,188.395 337.825,188.709C337.55,189.024 337.179,189.288 336.711,189.501C336.243,189.714 335.683,189.873 335.032,189.98C334.381,190.086 333.679,190.14 332.925,190.14C332.148,190.14 331.423,190.086 330.749,189.98C330.075,189.873 329.487,189.719 328.985,189.515C328.482,189.312 328.088,189.063 327.803,188.768C327.517,188.472 327.374,188.141 327.374,187.773C327.374,187.531 327.626,187.41 328.128,187.41L328.985,187.41C329.487,187.41 329.738,187.531 329.738,187.773C329.738,188.179 330.047,188.496 330.664,188.724C331.28,188.951 332.023,189.065 332.891,189.065C333.21,189.065 333.536,189.043 333.867,189C334.198,188.956 334.501,188.881 334.775,188.775C335.049,188.668 335.272,188.521 335.443,188.332C335.615,188.143 335.7,187.904 335.7,187.613C335.7,187.42 335.643,187.223 335.529,187.025C335.415,186.827 335.198,186.587 334.878,186.306L329.67,181.819C329.373,181.568 329.179,181.335 329.087,181.122C328.996,180.909 328.95,180.721 328.95,180.556C328.95,180.208 329.07,179.91 329.31,179.663C329.55,179.416 329.87,179.211 330.269,179.046C330.669,178.881 331.115,178.76 331.606,178.683C332.097,178.606 332.594,178.567 333.096,178.567C333.69,178.567 334.238,178.615 334.741,178.712C335.243,178.809 335.683,178.94 336.06,179.104C336.437,179.269 336.734,179.465 336.951,179.692C337.168,179.92 337.276,180.164 337.276,180.425ZM362.781,178.567C363.421,178.567 363.986,178.618 364.477,178.719C364.968,178.821 365.368,178.952 365.676,179.111C365.985,179.271 366.219,179.453 366.379,179.656C366.538,179.859 366.618,180.067 366.618,180.28L366.618,180.919C366.618,181.306 366.538,181.648 366.379,181.943C366.219,182.238 365.985,182.514 365.676,182.771C365.368,183.027 364.991,183.267 364.546,183.489C364.1,183.712 363.58,183.944 362.987,184.186C362.827,184.254 362.747,184.336 362.747,184.433C362.747,184.472 362.77,184.542 362.815,184.644C362.861,184.745 362.918,184.861 362.987,184.992C363.055,185.123 363.129,185.258 363.209,185.399C363.289,185.539 363.363,185.663 363.432,185.769C363.546,185.972 363.666,186.168 363.792,186.357C363.917,186.546 364.043,186.71 364.169,186.851C364.294,186.991 364.42,187.105 364.546,187.192C364.671,187.279 364.791,187.323 364.905,187.323C365.065,187.323 365.202,187.25 365.316,187.105C365.431,186.96 365.533,186.783 365.625,186.575C365.716,186.367 365.79,186.144 365.848,185.907C365.905,185.67 365.956,185.459 366.002,185.275C366.047,185.072 366.299,184.97 366.755,184.97C366.778,184.97 366.875,184.975 367.047,184.985C367.218,184.995 367.498,185.014 367.886,185.043C368.297,185.072 368.503,185.179 368.503,185.362C368.503,185.566 368.469,185.803 368.4,186.074C368.332,186.345 368.217,186.623 368.057,186.909C367.898,187.194 367.703,187.482 367.475,187.773C367.247,188.063 366.972,188.334 366.653,188.586C366.607,188.615 366.584,188.668 366.584,188.746C366.584,188.852 366.693,188.932 366.91,188.985C367.127,189.039 367.361,189.065 367.612,189.065C367.795,189.065 367.972,189.048 368.143,189.014C368.314,188.98 368.446,188.964 368.537,188.964C368.674,188.964 368.743,189.017 368.743,189.123L368.743,189.69C368.743,189.777 368.68,189.847 368.554,189.9C368.429,189.953 368.28,189.999 368.109,190.038C367.938,190.077 367.749,190.103 367.544,190.118C367.338,190.132 367.167,190.14 367.03,190.14C366.71,190.14 366.401,190.115 366.104,190.067C365.808,190.019 365.522,189.941 365.248,189.835C365.065,189.767 364.848,189.733 364.597,189.733C364.391,189.733 364.231,189.752 364.117,189.791C363.683,189.898 363.215,189.982 362.712,190.045C362.21,190.108 361.662,190.14 361.068,190.14C359.583,190.14 358.412,189.953 357.556,189.581C356.699,189.208 356.271,188.644 356.271,187.889L356.271,186.989C356.271,186.679 356.334,186.403 356.459,186.161C356.585,185.919 356.785,185.689 357.059,185.471C357.333,185.254 357.681,185.038 358.104,184.825C358.527,184.612 359.046,184.375 359.663,184.114C359.823,184.046 359.903,183.968 359.903,183.881C359.903,183.823 359.851,183.707 359.749,183.533C359.646,183.359 359.549,183.199 359.457,183.054C359.275,182.705 359.132,182.369 359.029,182.044C358.926,181.72 358.875,181.384 358.875,181.035L358.875,180.28C358.875,179.757 359.246,179.341 359.989,179.031C360.731,178.722 361.662,178.567 362.781,178.567ZM480.246,189.719C480.246,189.932 479.995,190.038 479.492,190.038L478.43,190.038C477.927,190.038 477.676,189.932 477.676,189.719L477.676,178.988C477.676,178.775 477.927,178.668 478.43,178.668L482.884,178.668C483.524,178.668 484.146,178.719 484.751,178.821C485.357,178.923 485.899,179.075 486.379,179.278C486.859,179.482 487.241,179.736 487.527,180.041C487.812,180.346 487.955,180.701 487.955,181.108L487.955,182.342C487.955,182.846 487.744,183.269 487.321,183.613C486.899,183.956 486.356,184.225 485.694,184.419C485.465,184.477 485.351,184.578 485.351,184.724C485.351,184.762 485.357,184.801 485.368,184.84C485.38,184.878 485.397,184.922 485.42,184.97L487.749,189.21C487.909,189.481 487.989,189.656 487.989,189.733C487.989,189.936 487.738,190.038 487.236,190.038L486.139,190.038C485.705,190.038 485.454,189.956 485.385,189.791L482.918,185.028C482.85,184.864 482.599,184.782 482.165,184.782L481,184.782C480.497,184.782 480.246,184.888 480.246,185.101L480.246,189.719ZM317.329,183.765C317.831,183.765 318.083,183.872 318.083,184.085L318.083,184.52C318.083,184.733 317.831,184.84 317.329,184.84L312.909,184.84C312.406,184.84 312.155,184.946 312.155,185.159L312.155,188.644C312.155,188.857 312.406,188.964 312.909,188.964L319.282,188.964C319.784,188.964 320.036,189.07 320.036,189.283L320.036,189.719C320.036,189.932 319.784,190.038 319.282,190.038L310.339,190.038C309.837,190.038 309.585,189.932 309.585,189.719L309.585,178.988C309.585,178.775 309.837,178.668 310.339,178.668L319.282,178.668C319.784,178.668 320.036,178.775 320.036,178.988L320.036,179.424C320.036,179.636 319.784,179.743 319.282,179.743L312.909,179.743C312.406,179.743 312.155,179.849 312.155,180.062L312.155,183.446C312.155,183.659 312.406,183.765 312.909,183.765L317.329,183.765ZM467.425,183.765C467.928,183.765 468.179,183.872 468.179,184.085L468.179,184.52C468.179,184.733 467.928,184.84 467.425,184.84L463.005,184.84C462.503,184.84 462.251,184.946 462.251,185.159L462.251,188.644C462.251,188.857 462.503,188.964 463.005,188.964L469.378,188.964C469.881,188.964 470.132,189.07 470.132,189.283L470.132,189.719C470.132,189.932 469.881,190.038 469.378,190.038L460.435,190.038C459.933,190.038 459.682,189.932 459.682,189.719L459.682,178.988C459.682,178.775 459.933,178.668 460.435,178.668L469.378,178.668C469.881,178.668 470.132,178.775 470.132,178.988L470.132,179.424C470.132,179.636 469.881,179.743 469.378,179.743L463.005,179.743C462.503,179.743 462.251,179.849 462.251,180.062L462.251,183.446C462.251,183.659 462.503,183.765 463.005,183.765L467.425,183.765ZM229.275,189.719C229.275,189.932 229.023,190.038 228.521,190.038L227.561,190.038C227.059,190.038 226.808,189.932 226.808,189.719L226.808,184.114C226.808,183.543 226.693,183.257 226.465,183.257C226.282,183.257 226.02,183.518 225.677,184.041L224.683,185.624C224.615,185.769 224.398,185.842 224.032,185.842C223.644,185.842 223.415,185.769 223.347,185.624L222.353,184.041C222.011,183.518 221.737,183.257 221.531,183.257C221.325,183.257 221.223,183.543 221.223,184.114L221.223,189.719C221.223,189.932 220.971,190.038 220.469,190.038L219.509,190.038C219.007,190.038 218.756,189.932 218.756,189.719L218.756,178.988C218.756,178.775 219.007,178.668 219.509,178.668L220.811,178.668C220.994,178.668 221.148,178.69 221.274,178.734C221.4,178.777 221.485,178.838 221.531,178.915L223.278,181.761C223.484,182.12 223.724,182.299 223.998,182.299C224.249,182.299 224.489,182.12 224.718,181.761L226.499,178.901C226.591,178.746 226.83,178.668 227.219,178.668L228.521,178.668C229.023,178.668 229.275,178.775 229.275,178.988L229.275,189.719ZM292.653,178.668C293.087,178.668 293.338,178.76 293.407,178.944L295.771,185.784C295.976,186.422 296.228,186.742 296.525,186.742C296.776,186.742 297.027,186.422 297.278,185.784L299.642,178.944C299.711,178.76 299.962,178.668 300.396,178.668L301.356,178.668C301.858,178.668 302.109,178.77 302.109,178.973C302.109,179.002 302.104,179.039 302.092,179.082C302.081,179.126 302.064,179.182 302.041,179.249L298.272,189.762C298.203,189.946 297.952,190.038 297.518,190.038L295.531,190.038C295.097,190.038 294.846,189.946 294.777,189.762L290.974,179.249C290.951,179.191 290.934,179.14 290.923,179.097C290.911,179.053 290.905,179.012 290.905,178.973C290.905,178.77 291.157,178.668 291.659,178.668L292.653,178.668ZM210.492,188.964C210.994,188.964 211.246,189.07 211.246,189.283L211.246,189.719C211.246,189.932 210.994,190.038 210.492,190.038L201.275,190.038C200.773,190.038 200.521,189.932 200.521,189.719L200.521,189.283C200.521,189.07 200.773,188.964 201.275,188.964L203.776,188.964C204.279,188.964 204.53,188.857 204.53,188.644L204.53,180.062C204.53,179.849 204.279,179.743 203.776,179.743L201.275,179.743C200.773,179.743 200.521,179.636 200.521,179.424L200.521,178.988C200.521,178.775 200.773,178.668 201.275,178.668L210.492,178.668C210.994,178.668 211.246,178.775 211.246,178.988L211.246,179.424C211.246,179.636 210.994,179.743 210.492,179.743L207.854,179.743C207.351,179.743 207.1,179.849 207.1,180.062L207.1,188.644C207.1,188.857 207.351,188.964 207.854,188.964L210.492,188.964ZM246.755,188.964C247.258,188.964 247.509,189.07 247.509,189.283L247.509,189.719C247.509,189.932 247.258,190.038 246.755,190.038L237.538,190.038C237.036,190.038 236.785,189.932 236.785,189.719L236.785,189.283C236.785,189.07 237.036,188.964 237.538,188.964L240.04,188.964C240.542,188.964 240.793,188.857 240.793,188.644L240.793,180.062C240.793,179.849 240.542,179.743 240.04,179.743L237.538,179.743C237.036,179.743 236.785,179.636 236.785,179.424L236.785,178.988C236.785,178.775 237.036,178.668 237.538,178.668L246.755,178.668C247.258,178.668 247.509,178.775 247.509,178.988L247.509,179.424C247.509,179.636 247.258,179.743 246.755,179.743L244.117,179.743C243.614,179.743 243.363,179.849 243.363,180.062L243.363,188.644C243.363,188.857 243.614,188.964 244.117,188.964L246.755,188.964ZM264.887,178.668C265.389,178.668 265.641,178.775 265.641,178.988L265.641,179.424C265.641,179.636 265.389,179.743 264.887,179.743L262.249,179.743C261.746,179.743 261.495,179.849 261.495,180.062L261.495,189.719C261.495,189.932 261.243,190.038 260.741,190.038L259.679,190.038C259.176,190.038 258.925,189.932 258.925,189.719L258.925,180.062C258.925,179.849 258.674,179.743 258.171,179.743L255.67,179.743C255.167,179.743 254.916,179.636 254.916,179.424L254.916,178.988C254.916,178.775 255.167,178.668 255.67,178.668L264.887,178.668ZM283.018,188.964C283.521,188.964 283.772,189.07 283.772,189.283L283.772,189.719C283.772,189.932 283.521,190.038 283.018,190.038L273.802,190.038C273.299,190.038 273.048,189.932 273.048,189.719L273.048,189.283C273.048,189.07 273.299,188.964 273.802,188.964L276.303,188.964C276.805,188.964 277.057,188.857 277.057,188.644L277.057,180.062C277.057,179.849 276.805,179.743 276.303,179.743L273.802,179.743C273.299,179.743 273.048,179.636 273.048,179.424L273.048,178.988C273.048,178.775 273.299,178.668 273.802,178.668L283.018,178.668C283.521,178.668 283.772,178.775 283.772,178.988L283.772,179.424C283.772,179.636 283.521,179.743 283.018,179.743L280.38,179.743C279.878,179.743 279.626,179.849 279.626,180.062L279.626,188.644C279.626,188.857 279.878,188.964 280.38,188.964L283.018,188.964ZM167.102,189.719C167.102,189.932 166.851,190.038 166.348,190.038L165.286,190.038C164.783,190.038 164.532,189.932 164.532,189.719L164.532,178.988C164.532,178.775 164.783,178.668 165.286,178.668L169.466,178.668C170.083,178.668 170.699,178.719 171.316,178.821C171.933,178.923 172.481,179.075 172.961,179.278C173.441,179.482 173.829,179.736 174.126,180.041C174.423,180.346 174.571,180.701 174.571,181.108L174.571,182.4C174.571,182.807 174.423,183.163 174.126,183.467C173.829,183.772 173.441,184.027 172.961,184.23C172.481,184.433 171.933,184.586 171.316,184.687C170.699,184.789 170.083,184.84 169.466,184.84L167.856,184.84C167.353,184.84 167.102,184.946 167.102,185.159L167.102,189.719ZM389.725,189.719C389.725,189.932 389.473,190.038 388.971,190.038L387.909,190.038C387.406,190.038 387.155,189.932 387.155,189.719L387.155,178.988C387.155,178.775 387.406,178.668 387.909,178.668L392.089,178.668C392.706,178.668 393.322,178.719 393.939,178.821C394.556,178.923 395.104,179.075 395.584,179.278C396.063,179.482 396.452,179.736 396.749,180.041C397.046,180.346 397.194,180.701 397.194,181.108L397.194,182.4C397.194,182.807 397.046,183.163 396.749,183.467C396.452,183.772 396.063,184.027 395.584,184.23C395.104,184.433 394.556,184.586 393.939,184.687C393.322,184.789 392.706,184.84 392.089,184.84L390.478,184.84C389.976,184.84 389.725,184.946 389.725,185.159L389.725,189.719ZM407.719,189.719C407.719,189.932 407.468,190.038 406.965,190.038L405.903,190.038C405.401,190.038 405.15,189.932 405.15,189.719L405.15,178.988C405.15,178.775 405.401,178.668 405.903,178.668L410.358,178.668C410.997,178.668 411.62,178.719 412.225,178.821C412.83,178.923 413.373,179.075 413.852,179.278C414.332,179.482 414.715,179.736 415,180.041C415.286,180.346 415.428,180.701 415.428,181.108L415.428,182.342C415.428,182.846 415.217,183.269 414.795,183.613C414.372,183.956 413.83,184.225 413.167,184.419C412.939,184.477 412.824,184.578 412.824,184.724C412.824,184.762 412.83,184.801 412.842,184.84C412.853,184.878 412.87,184.922 412.893,184.97L415.223,189.21C415.383,189.481 415.463,189.656 415.463,189.733C415.463,189.936 415.211,190.038 414.709,190.038L413.613,190.038C413.179,190.038 412.927,189.956 412.859,189.791L410.392,185.028C410.323,184.864 410.072,184.782 409.638,184.782L408.473,184.782C407.971,184.782 407.719,184.888 407.719,185.101L407.719,189.719ZM185.096,189.719C185.096,189.932 184.845,190.038 184.343,190.038L183.28,190.038C182.778,190.038 182.527,189.932 182.527,189.719L182.527,178.988C182.527,178.775 182.778,178.668 183.28,178.668L187.735,178.668C188.374,178.668 188.997,178.719 189.602,178.821C190.207,178.923 190.75,179.075 191.23,179.278C191.709,179.482 192.092,179.736 192.377,180.041C192.663,180.346 192.806,180.701 192.806,181.108L192.806,182.342C192.806,182.846 192.594,183.269 192.172,183.613C191.749,183.956 191.207,184.225 190.544,184.419C190.316,184.477 190.202,184.578 190.202,184.724C190.202,184.762 190.207,184.801 190.219,184.84C190.23,184.878 190.247,184.922 190.27,184.97L192.6,189.21C192.76,189.481 192.84,189.656 192.84,189.733C192.84,189.936 192.589,190.038 192.086,190.038L190.99,190.038C190.556,190.038 190.304,189.956 190.236,189.791L187.769,185.028C187.7,184.864 187.449,184.782 187.015,184.782L185.85,184.782C185.348,184.782 185.096,184.888 185.096,185.101L185.096,189.719ZM423.418,180.527C423.418,179.288 424.754,178.668 427.427,178.668L429.586,178.668C432.235,178.668 433.56,179.288 433.56,180.527L433.56,188.194C433.56,189.423 432.235,190.038 429.586,190.038L427.427,190.038C424.754,190.038 423.418,189.423 423.418,188.194L423.418,180.527ZM444.12,189.719C444.12,189.932 443.868,190.038 443.366,190.038L442.304,190.038C441.801,190.038 441.55,189.932 441.55,189.719L441.55,178.988C441.55,178.775 441.801,178.668 442.304,178.668L446.484,178.668C447.1,178.668 447.717,178.719 448.334,178.821C448.951,178.923 449.499,179.075 449.979,179.278C450.458,179.482 450.847,179.736 451.144,180.041C451.44,180.346 451.589,180.701 451.589,181.108L451.589,182.4C451.589,182.807 451.44,183.163 451.144,183.467C450.847,183.772 450.458,184.027 449.979,184.23C449.499,184.433 448.951,184.586 448.334,184.687C447.717,184.789 447.1,184.84 446.484,184.84L444.873,184.84C444.371,184.84 444.12,184.946 444.12,185.159L444.12,189.719ZM362.918,188.92C363.124,188.881 363.226,188.804 363.226,188.688C363.226,188.63 363.204,188.586 363.158,188.557C362.701,188.131 362.296,187.674 361.942,187.185C361.587,186.696 361.251,186.185 360.931,185.653C360.817,185.45 360.622,185.348 360.348,185.348C360.143,185.348 359.937,185.406 359.732,185.522C359.366,185.725 359.121,185.936 358.995,186.154C358.869,186.372 358.806,186.664 358.806,187.032L358.806,187.86C358.806,188.286 359.006,188.593 359.406,188.782C359.806,188.971 360.428,189.065 361.273,189.065C361.525,189.065 361.787,189.055 362.061,189.036C362.336,189.017 362.621,188.978 362.918,188.92ZM425.988,188.281C425.988,188.736 426.468,188.964 427.427,188.964L429.586,188.964C430.545,188.964 431.025,188.736 431.025,188.281L431.025,180.425C431.025,179.97 430.545,179.743 429.586,179.743L427.427,179.743C426.468,179.743 425.988,179.97 425.988,180.425L425.988,188.281ZM167.856,179.743C167.353,179.743 167.102,179.849 167.102,180.062L167.102,183.446C167.102,183.659 167.353,183.765 167.856,183.765L169.466,183.765C170.174,183.765 170.768,183.659 171.248,183.446C171.727,183.233 171.967,182.918 171.967,182.502L171.967,181.006C171.967,180.59 171.727,180.275 171.248,180.062C170.768,179.849 170.174,179.743 169.466,179.743L167.856,179.743ZM444.873,179.743C444.371,179.743 444.12,179.849 444.12,180.062L444.12,183.446C444.12,183.659 444.371,183.765 444.873,183.765L446.484,183.765C447.192,183.765 447.786,183.659 448.265,183.446C448.745,183.233 448.985,182.918 448.985,182.502L448.985,181.006C448.985,180.59 448.745,180.275 448.265,180.062C447.786,179.849 447.192,179.743 446.484,179.743L444.873,179.743ZM390.478,179.743C389.976,179.743 389.725,179.849 389.725,180.062L389.725,183.446C389.725,183.659 389.976,183.765 390.478,183.765L392.089,183.765C392.797,183.765 393.391,183.659 393.871,183.446C394.35,183.233 394.59,182.918 394.59,182.502L394.59,181.006C394.59,180.59 394.35,180.275 393.871,180.062C393.391,179.849 392.797,179.743 392.089,179.743L390.478,179.743ZM481,179.743C480.497,179.743 480.246,179.849 480.246,180.062L480.246,183.388C480.246,183.601 480.497,183.707 481,183.707L482.884,183.707C483.592,183.707 484.192,183.601 484.683,183.388C485.174,183.175 485.42,182.86 485.42,182.444L485.42,181.006C485.42,180.59 485.174,180.275 484.683,180.062C484.192,179.849 483.592,179.743 482.884,179.743L481,179.743ZM185.85,179.743C185.348,179.743 185.096,179.849 185.096,180.062L185.096,183.388C185.096,183.601 185.348,183.707 185.85,183.707L187.735,183.707C188.443,183.707 189.042,183.601 189.534,183.388C190.025,183.175 190.27,182.86 190.27,182.444L190.27,181.006C190.27,180.59 190.025,180.275 189.534,180.062C189.042,179.849 188.443,179.743 187.735,179.743L185.85,179.743ZM408.473,179.743C407.971,179.743 407.719,179.849 407.719,180.062L407.719,183.388C407.719,183.601 407.971,183.707 408.473,183.707L410.358,183.707C411.066,183.707 411.665,183.601 412.156,183.388C412.647,183.175 412.893,182.86 412.893,182.444L412.893,181.006C412.893,180.59 412.647,180.275 412.156,180.062C411.665,179.849 411.066,179.743 410.358,179.743L408.473,179.743ZM362.884,179.641C362.427,179.641 362.044,179.707 361.736,179.837C361.428,179.968 361.273,180.159 361.273,180.411L361.273,181.035C361.273,181.122 361.285,181.27 361.308,181.478C361.33,181.686 361.376,181.897 361.445,182.11C361.513,182.323 361.61,182.512 361.736,182.676C361.862,182.841 362.039,182.923 362.267,182.923C362.495,182.923 362.712,182.865 362.918,182.749C363.489,182.468 363.866,182.204 364.049,181.957C364.231,181.711 364.323,181.389 364.323,180.992L364.323,180.382C364.323,180.15 364.197,179.968 363.946,179.837C363.695,179.707 363.341,179.641 362.884,179.641Z" style="fill:rgb(10,5,8);fill-rule:nonzero;"/>
        </g>
        <g transform="matrix(1.55931,0,0,1.55931,-1585.75,-1009.47)">
            <path d="M1918.42,1985.35C1925.5,1986.26 1935.54,1987.2 1940.82,1986.04C1978.07,1977.84 1975.67,1950.69 1944.45,1942.98C1916.15,1935.99 1872.02,1941.03 1815.65,1952.58C1778.28,1960.23 1731.56,1958.76 1714.55,1928.45C1694.43,1892.59 1754.36,1872.23 1796.95,1879.25C1799.32,1879.64 1798.34,1886.99 1796.09,1887.02C1765.98,1887.38 1724.51,1888.73 1733.25,1920.23C1738.48,1939.07 1783.15,1950.93 1813.77,1944.24C1881.55,1929.43 1941.23,1920.03 1969.47,1936.35C2002.18,1955.26 1984.52,1978.71 1958.32,1989.07C2042.96,2047.45 1977.88,2149.29 1854.76,2108.78C1827.27,2122.28 1802.83,2120.64 1802.75,2106.9C1802.65,2091.58 1831.21,2089.86 1854.78,2097.42L1854.76,2097.41C1893.1,2055.93 1883.98,1998.71 1911.63,1952.58L1932.96,1954.8C1926.54,1964.31 1922.04,1974.6 1918.42,1985.35ZM1940.83,1991.8L1915.19,1995.77C1905.01,2031.25 1900.63,2070.36 1867.53,2101.93C1964.11,2132.96 2010.82,2041.84 1940.83,1991.8ZM2381.84,2056.73C2378.36,2062.82 2370.5,2074.3 2354.55,2076.08C2333.73,2078.41 2328.6,2059.33 2327.15,2048.07C2318.9,2062.03 2308.72,2076.27 2294.78,2076.08C2285.11,2075.94 2278.42,2068.96 2277.42,2062.55C2274.82,2046.02 2280.64,2037.87 2286.06,2026.79C2290.73,2017.25 2296.07,2003.11 2289,2001.53C2281.69,1999.9 2275.6,2011.86 2267.52,2023.89L2255.42,2076.08L2235.16,2076.08L2240.94,2053.83C2226.74,2067.65 2215.36,2076.5 2199.15,2076.08C2183.24,2075.67 2176.85,2061.71 2174.11,2050.26C2162.04,2066.05 2154.64,2076.35 2140.89,2076.08C2132.32,2075.91 2126.93,2069.81 2125.65,2065.95C2120.59,2050.58 2127.07,2041.06 2133.8,2026.98C2138.59,2016.98 2142.77,2006.05 2139.54,2003.86C2128.6,1996.41 2118.03,2015.36 2111.57,2035.42L2101.72,2076.08L2081.35,2076.08L2083.62,2062.47C2078.39,2068.81 2068.64,2076.55 2059.13,2076.08C2052.69,2075.76 2044.61,2070.55 2043,2061.84L2042.82,2062.07C2037.71,2069.74 2030.91,2075.73 2021.61,2076.08C2013.83,2076.37 2007.97,2072.07 2005.95,2063.86C2002.88,2051.33 2006.42,2038.6 2006.42,2038.6L2019.8,1989.86L2040.05,1989.86L2026.8,2038.32C2018.89,2070.01 2033.96,2069.59 2046.67,2031.73L2058.17,1989.86L2078.42,1989.86L2065.2,2037.82C2053.65,2088.21 2090.4,2042.76 2093.96,2027.72L2102.33,1989.86L2122.59,1989.86L2120.06,2000.29C2127.1,1994.21 2137.82,1988.34 2144.67,1987.61C2152.34,1986.78 2164.96,1990.66 2161.81,2004.84C2157.89,2022.47 2140.03,2053.27 2146.61,2059.22C2156.23,2067.91 2165.29,2049.28 2173.9,2033.55C2178.93,2019.34 2184.55,2008.51 2194.01,1997.98C2206.33,1984.28 2235.54,1982.74 2236.93,2002.2C2237.88,2015.66 2234.41,2023.68 2229.9,2032.1L2213.72,2025.88C2221.78,2016.94 2225.98,2000.96 2218.16,1999.48C2208.25,1997.61 2197.24,2015.23 2194.55,2031.23C2191.55,2049.12 2200.34,2070.54 2222.08,2057.54C2234.19,2050.3 2240.73,2040.91 2246.57,2030.56C2252.79,2000.32 2264.76,1954.91 2270.34,1945.13C2292.57,1906.21 2343.33,1932.07 2274.21,1991.33L2272.21,2000.83C2278.99,1996.87 2282.5,1992.16 2294.62,1988.37C2306.35,1984.69 2324.92,1991.39 2307.37,2026.07C2302.01,2036.65 2295.43,2048.62 2298.14,2056.48C2303.96,2073.41 2317.24,2047.82 2328.05,2031.27C2332.76,2000.18 2340.52,1969.93 2352.12,1940.75L2352.2,1940.62C2364.91,1918.12 2393.23,1922.9 2387.43,1943.43C2383.13,1958.69 2378.37,1965.11 2351.83,1990.67C2351.79,1990.82 2351.53,1992.33 2351.15,1994.8C2351.15,1994.8 2372.59,1982.93 2384.78,1994.28C2398.01,2006.6 2393.44,2029.58 2388.21,2046.07L2388.03,2046.36C2394.46,2043.4 2400.24,2037.67 2405.51,2029.69C2416.12,1995.74 2432.75,1986.97 2450.14,1987.84C2482.01,1989.43 2466.55,2033.28 2424.6,2037.87C2427.1,2093.22 2478.36,2044.02 2484.64,2002.09C2480.92,1994.81 2478.65,1987.51 2480.04,1980.84C2481.57,1973.44 2483.36,1969.39 2486.63,1964.54L2503.16,1966.44C2503.89,1977.38 2501.8,1987.87 2497.37,1997.98C2502.07,2000.79 2506.76,2005.17 2511.43,2011.5C2520.75,2024.12 2511.25,2037.7 2506.38,2055.65C2504.29,2063.36 2513.86,2062.56 2518.58,2056.15C2527.33,2044.27 2536.87,2022.12 2544.52,2003.81C2540.27,1995.96 2537.51,1988.03 2539.01,1980.84C2540.54,1973.44 2542.33,1969.39 2545.6,1964.54L2562.12,1966.44C2562.86,1977.38 2560.77,1987.87 2556.34,1997.98C2561.04,2000.79 2565.73,2005.17 2570.4,2011.5C2579.72,2024.12 2570.22,2037.7 2565.35,2055.65C2563.26,2063.36 2572.83,2062.56 2577.55,2056.15C2582.06,2050.03 2586.78,2041.18 2591.34,2031.54C2594.61,2018.12 2599.96,2004.11 2602.23,1987.78L2623.24,1987.74C2620.27,2014.82 2603.29,2053.97 2609.58,2059.99C2618.25,2068.29 2635.93,2037.61 2638.15,2029.03C2645.46,2000.79 2667.13,1986.93 2684.51,1987.8C2716.39,1989.39 2700.92,2033.24 2658.98,2037.83C2662.47,2088.72 2714.9,2045.27 2720.2,2003.93L2720.2,2003.93C2716.59,1989.67 2719.32,1977.27 2723.58,1962.29L2740.37,1964.08C2743.33,1974.16 2733.2,1981.17 2734.82,1994.71C2735.78,2002.76 2739.99,2013.21 2749.45,2023.4C2756.04,2030.51 2758.96,2039.48 2758.74,2047.99C2763.66,2044.34 2767.49,2037.63 2771.32,2029.63L2779.42,2030.14C2771.09,2050.82 2759.63,2065.98 2744.31,2073.14L2744.31,2073.14C2734.27,2078.41 2719.42,2077.32 2701.1,2063.79L2717.65,2053.83C2734.38,2072.13 2746.66,2050.66 2732.07,2028.89C2728.95,2024.23 2726.46,2019.88 2724.51,2015.74C2708.35,2052.36 2692.95,2075.02 2669.24,2076.04C2646.63,2077.01 2637.76,2050.53 2637.76,2050.53C2637.76,2050.53 2622.45,2076.08 2610.3,2076.12C2597.11,2076.16 2589.39,2063.09 2588.79,2055.21C2588.75,2054.6 2588.71,2054 2588.68,2053.4C2588.61,2053.52 2588.53,2053.65 2588.45,2053.78C2582.92,2062.82 2574.12,2075.2 2564.05,2076.12C2553.82,2077.05 2545.21,2069.72 2544.38,2060.94C2543.28,2049.27 2553.79,2039.38 2554.47,2027.4C2554.84,2020.85 2554.41,2019.46 2552.63,2016.83C2551.89,2015.73 2551.14,2014.62 2550.41,2013.5C2541.97,2026.74 2537.51,2040.66 2529.48,2053.78C2523.95,2062.82 2515.15,2075.2 2505.08,2076.12C2494.85,2077.05 2486.24,2069.72 2485.41,2060.94C2484.31,2049.27 2494.82,2039.38 2495.5,2027.4C2495.87,2020.85 2495.45,2019.46 2493.66,2016.83C2492.86,2015.64 2492.05,2014.43 2491.26,2013.22C2474.68,2051.35 2459.12,2075.04 2434.87,2076.08C2412.25,2077.05 2405.92,2060.65 2402.23,2045.12C2395.42,2051.39 2388.62,2055.49 2381.84,2056.73ZM2345.22,2044.12C2344.87,2055.92 2346.77,2061.45 2353.11,2061.26C2355.75,2061.19 2358.35,2059.75 2360.77,2057.36C2357.85,2051.56 2348.01,2055 2345.22,2044.12ZM2368.47,2045.3C2375.64,2028.75 2377.03,2004.74 2363.31,2000.67C2356.98,1998.79 2350.26,2009.34 2347.9,2013.23C2347.56,2017.38 2347.16,2021.65 2346.79,2025.86C2351.89,2047.06 2363.54,2051.16 2368.47,2045.3ZM2424.62,2028.72C2427.37,2020.12 2429.27,2011.82 2439.66,2001.8C2445.45,1996.22 2453.09,1999.02 2450.02,2006.89C2444.47,2021.08 2436.08,2026.52 2424.62,2028.72ZM2659,2028.68C2661.74,2020.07 2663.64,2011.78 2674.04,2001.76C2679.83,1996.18 2687.47,1998.98 2684.39,2006.85C2678.85,2021.04 2670.46,2026.47 2659,2028.68ZM2278.93,1974.77C2278.93,1974.77 2283.64,1955.72 2289.28,1941.98C2291.35,1936.94 2298.98,1937.99 2297.76,1943.48C2295.38,1954.16 2278.93,1974.77 2278.93,1974.77ZM2374.69,1939.46C2370.9,1939.01 2367.76,1944.34 2364.95,1951.43C2362.16,1958.51 2359.7,1967.35 2357.29,1973.89C2388.23,1941.11 2374.73,1939.47 2374.69,1939.46Z" style="fill:rgb(0,119,123);"/>
        </g>
        <g transform="matrix(1.55931,0,0,1.55931,-1585.75,-1009.47)">
            <path d="M2619.4,1952.23C2625.83,1952.23 2631.05,1957.45 2631.05,1963.88C2631.05,1970.31 2625.83,1975.53 2619.4,1975.53C2612.97,1975.53 2607.75,1970.31 2607.75,1963.88C2607.75,1957.45 2612.97,1952.23 2619.4,1952.23ZM2598.49,1933.39C2604.92,1933.39 2610.14,1938.61 2610.14,1945.04C2610.14,1951.48 2604.92,1956.7 2598.49,1956.7C2592.06,1956.7 2586.84,1951.48 2586.84,1945.04C2586.84,1938.61 2592.06,1933.39 2598.49,1933.39ZM2628.03,1926.69C2634.46,1926.69 2639.68,1931.91 2639.68,1938.34C2639.68,1944.78 2634.46,1950 2628.03,1950C2621.6,1950 2616.38,1944.78 2616.38,1938.34C2616.38,1931.91 2621.6,1926.69 2628.03,1926.69Z" style="fill:rgb(154,0,30);"/>
        </g>
    </g>
</svg>
